<mxfile host="app.diagrams.net" modified="2022-03-24T07:08:49.322Z" agent="5.0 (Windows NT 10.0; WOW64) AppleWebKit/537.36 (KHTML, like Gecko) Chrome/99.0.4844.74 Safari/537.36" etag="qJOtKwdIiVN3ccIzjLE1" version="17.2.1" type="github">
  <diagram name="Page-1" id="13e1069c-82ec-6db2-03f1-153e76fe0fe0">
    <mxGraphModel dx="2254" dy="835" grid="1" gridSize="10" guides="1" tooltips="1" connect="1" arrows="1" fold="1" page="1" pageScale="1" pageWidth="1100" pageHeight="850" background="none" math="0" shadow="0">
      <root>
        <mxCell id="0" />
        <mxCell id="1" parent="0" />
        <mxCell id="7baba1c4bc27f4b0-2" value="apisix网关" style="shape=umlLifeline;perimeter=lifelinePerimeter;whiteSpace=wrap;html=1;container=1;collapsible=0;recursiveResize=0;outlineConnect=0;rounded=1;shadow=0;comic=0;labelBackgroundColor=none;strokeWidth=1;fontFamily=Verdana;fontSize=12;align=center;" parent="1" vertex="1">
          <mxGeometry x="240" y="80" width="100" height="580" as="geometry" />
        </mxCell>
        <mxCell id="7baba1c4bc27f4b0-10" value="" style="html=1;points=[];perimeter=orthogonalPerimeter;rounded=0;shadow=0;comic=0;labelBackgroundColor=none;strokeWidth=1;fontFamily=Verdana;fontSize=12;align=center;" parent="7baba1c4bc27f4b0-2" vertex="1">
          <mxGeometry x="45" y="100" width="10" height="440" as="geometry" />
        </mxCell>
        <mxCell id="7baba1c4bc27f4b0-3" value="用户中心" style="shape=umlLifeline;perimeter=lifelinePerimeter;whiteSpace=wrap;html=1;container=1;collapsible=0;recursiveResize=0;outlineConnect=0;rounded=1;shadow=0;comic=0;labelBackgroundColor=none;strokeWidth=1;fontFamily=Verdana;fontSize=12;align=center;" parent="1" vertex="1">
          <mxGeometry x="400" y="80" width="100" height="580" as="geometry" />
        </mxCell>
        <mxCell id="7baba1c4bc27f4b0-13" value="" style="html=1;points=[];perimeter=orthogonalPerimeter;rounded=0;shadow=0;comic=0;labelBackgroundColor=none;strokeWidth=1;fontFamily=Verdana;fontSize=12;align=center;" parent="7baba1c4bc27f4b0-3" vertex="1">
          <mxGeometry x="45" y="120" width="10" height="420" as="geometry" />
        </mxCell>
        <mxCell id="ht5kDJYPR5s3BAsfl9sB-2" value="" style="html=1;verticalAlign=bottom;endArrow=block;labelBackgroundColor=none;fontFamily=Verdana;fontSize=12;edgeStyle=elbowEdgeStyle;elbow=vertical;" edge="1" parent="7baba1c4bc27f4b0-3">
          <mxGeometry x="-0.1538" y="10" relative="1" as="geometry">
            <mxPoint x="-106" y="130" as="sourcePoint" />
            <mxPoint x="45" y="130" as="targetPoint" />
            <Array as="points">
              <mxPoint x="-70" y="130" />
              <mxPoint x="-35" y="130" />
              <mxPoint x="25" y="140" />
              <mxPoint x="-45" y="110" />
              <mxPoint x="-75" y="130" />
            </Array>
            <mxPoint as="offset" />
          </mxGeometry>
        </mxCell>
        <mxCell id="ht5kDJYPR5s3BAsfl9sB-39" value="登录验证" style="edgeLabel;html=1;align=center;verticalAlign=middle;resizable=0;points=[];" vertex="1" connectable="0" parent="ht5kDJYPR5s3BAsfl9sB-2">
          <mxGeometry x="0.0261" y="-3" relative="1" as="geometry">
            <mxPoint x="-1" y="-13" as="offset" />
          </mxGeometry>
        </mxCell>
        <mxCell id="ht5kDJYPR5s3BAsfl9sB-38" value="" style="html=1;verticalAlign=bottom;endArrow=block;labelBackgroundColor=none;fontFamily=Verdana;fontSize=12;edgeStyle=elbowEdgeStyle;elbow=vertical;exitX=0.9;exitY=0.172;exitDx=0;exitDy=0;exitPerimeter=0;" edge="1" parent="7baba1c4bc27f4b0-3">
          <mxGeometry x="-0.1538" y="10" relative="1" as="geometry">
            <mxPoint x="-106" y="220.96000000000004" as="sourcePoint" />
            <mxPoint x="45" y="220" as="targetPoint" />
            <Array as="points">
              <mxPoint x="-35" y="220" />
              <mxPoint x="25" y="230" />
              <mxPoint x="-45" y="200" />
              <mxPoint x="-75" y="220" />
            </Array>
            <mxPoint as="offset" />
          </mxGeometry>
        </mxCell>
        <mxCell id="ht5kDJYPR5s3BAsfl9sB-40" value="验证user&amp;nbsp;token" style="edgeLabel;html=1;align=center;verticalAlign=middle;resizable=0;points=[];" vertex="1" connectable="0" parent="ht5kDJYPR5s3BAsfl9sB-38">
          <mxGeometry x="-0.0661" y="3" relative="1" as="geometry">
            <mxPoint as="offset" />
          </mxGeometry>
        </mxCell>
        <mxCell id="7baba1c4bc27f4b0-4" value="业务服务" style="shape=umlLifeline;perimeter=lifelinePerimeter;whiteSpace=wrap;html=1;container=1;collapsible=0;recursiveResize=0;outlineConnect=0;rounded=1;shadow=0;comic=0;labelBackgroundColor=none;strokeWidth=1;fontFamily=Verdana;fontSize=12;align=center;" parent="1" vertex="1">
          <mxGeometry x="540" y="80" width="100" height="580" as="geometry" />
        </mxCell>
        <mxCell id="ht5kDJYPR5s3BAsfl9sB-9" value="dispatch" style="html=1;verticalAlign=bottom;endArrow=block;labelBackgroundColor=none;fontFamily=Verdana;fontSize=12;elbow=vertical;edgeStyle=orthogonalEdgeStyle;curved=1;entryX=1;entryY=0.286;entryPerimeter=0;exitX=1.038;exitY=0.345;exitPerimeter=0;" edge="1" parent="7baba1c4bc27f4b0-4">
          <mxGeometry x="-0.5796" y="10" relative="1" as="geometry">
            <mxPoint x="55.003333333333444" y="291.67" as="sourcePoint" />
            <mxPoint x="60.003333333333444" y="330.0033333333335" as="targetPoint" />
            <Array as="points">
              <mxPoint x="100" y="291.67" />
              <mxPoint x="100" y="329.67" />
            </Array>
            <mxPoint as="offset" />
          </mxGeometry>
        </mxCell>
        <mxCell id="7baba1c4bc27f4b0-8" value="用户" style="shape=umlLifeline;perimeter=lifelinePerimeter;whiteSpace=wrap;html=1;container=1;collapsible=0;recursiveResize=0;outlineConnect=0;rounded=1;shadow=0;comic=0;labelBackgroundColor=none;strokeWidth=1;fontFamily=Verdana;fontSize=12;align=center;" parent="1" vertex="1">
          <mxGeometry x="100" y="80" width="100" height="580" as="geometry" />
        </mxCell>
        <mxCell id="7baba1c4bc27f4b0-9" value="" style="html=1;points=[];perimeter=orthogonalPerimeter;rounded=0;shadow=0;comic=0;labelBackgroundColor=none;strokeWidth=1;fontFamily=Verdana;fontSize=12;align=center;" parent="7baba1c4bc27f4b0-8" vertex="1">
          <mxGeometry x="45" y="100" width="10" height="440" as="geometry" />
        </mxCell>
        <mxCell id="7baba1c4bc27f4b0-16" value="" style="html=1;points=[];perimeter=orthogonalPerimeter;rounded=0;shadow=0;comic=0;labelBackgroundColor=none;strokeWidth=1;fontFamily=Verdana;fontSize=12;align=center;" parent="1" vertex="1">
          <mxGeometry x="585" y="220" width="10" height="400" as="geometry" />
        </mxCell>
        <mxCell id="7baba1c4bc27f4b0-11" value="" style="html=1;verticalAlign=bottom;endArrow=block;labelBackgroundColor=none;fontFamily=Verdana;fontSize=12;edgeStyle=elbowEdgeStyle;elbow=vertical;" parent="1" source="7baba1c4bc27f4b0-9" target="7baba1c4bc27f4b0-10" edge="1">
          <mxGeometry x="-0.1538" y="10" relative="1" as="geometry">
            <mxPoint x="220" y="190" as="sourcePoint" />
            <mxPoint x="280" y="200" as="targetPoint" />
            <Array as="points">
              <mxPoint x="240" y="200" />
              <mxPoint x="220" y="200" />
              <mxPoint x="280" y="210" />
              <mxPoint x="210" y="180" />
              <mxPoint x="180" y="200" />
            </Array>
            <mxPoint as="offset" />
          </mxGeometry>
        </mxCell>
        <mxCell id="ht5kDJYPR5s3BAsfl9sB-34" value="login" style="edgeLabel;html=1;align=center;verticalAlign=middle;resizable=0;points=[];" vertex="1" connectable="0" parent="7baba1c4bc27f4b0-11">
          <mxGeometry x="-0.1846" y="3" relative="1" as="geometry">
            <mxPoint x="-8" y="-7" as="offset" />
          </mxGeometry>
        </mxCell>
        <mxCell id="7baba1c4bc27f4b0-40" value="Note" style="shape=note;whiteSpace=wrap;html=1;size=14;verticalAlign=top;align=left;spacingTop=-6;rounded=0;shadow=0;comic=0;labelBackgroundColor=none;strokeWidth=1;fontFamily=Verdana;fontSize=12" parent="1" vertex="1">
          <mxGeometry x="100" y="30" width="100" height="35" as="geometry" />
        </mxCell>
        <mxCell id="7baba1c4bc27f4b0-41" value="网关配置需要&lt;br&gt;用户认证的路由" style="shape=note;whiteSpace=wrap;html=1;size=14;verticalAlign=top;align=left;spacingTop=-6;rounded=0;shadow=0;comic=0;labelBackgroundColor=none;strokeWidth=1;fontFamily=Verdana;fontSize=12" parent="1" vertex="1">
          <mxGeometry x="240" y="30" width="100" height="35" as="geometry" />
        </mxCell>
        <mxCell id="7baba1c4bc27f4b0-42" value="提供认证和返回&lt;br&gt;用户信息" style="shape=note;whiteSpace=wrap;html=1;size=14;verticalAlign=top;align=left;spacingTop=-6;rounded=0;shadow=0;comic=0;labelBackgroundColor=none;strokeWidth=1;fontFamily=Verdana;fontSize=12" parent="1" vertex="1">
          <mxGeometry x="400" y="30" width="100" height="35" as="geometry" />
        </mxCell>
        <mxCell id="7baba1c4bc27f4b0-43" value="无需再次访问&lt;br&gt;用户中心" style="shape=note;whiteSpace=wrap;html=1;size=14;verticalAlign=top;align=left;spacingTop=-6;rounded=0;shadow=0;comic=0;labelBackgroundColor=none;strokeWidth=1;fontFamily=Verdana;fontSize=12" parent="1" vertex="1">
          <mxGeometry x="540" y="30" width="100" height="35" as="geometry" />
        </mxCell>
        <mxCell id="ht5kDJYPR5s3BAsfl9sB-8" value="return" style="html=1;verticalAlign=bottom;endArrow=open;dashed=1;endSize=8;labelBackgroundColor=none;fontFamily=Verdana;fontSize=12;exitX=1.14;exitY=0.479;exitDx=0;exitDy=0;exitPerimeter=0;" edge="1" parent="1" source="7baba1c4bc27f4b0-16">
          <mxGeometry x="-0.1879" relative="1" as="geometry">
            <mxPoint x="160" y="412" as="targetPoint" />
            <mxPoint x="570" y="340" as="sourcePoint" />
            <Array as="points" />
            <mxPoint as="offset" />
          </mxGeometry>
        </mxCell>
        <mxCell id="ht5kDJYPR5s3BAsfl9sB-10" value="apisix网关" style="shape=umlLifeline;perimeter=lifelinePerimeter;whiteSpace=wrap;html=1;container=1;collapsible=0;recursiveResize=0;outlineConnect=0;rounded=1;shadow=0;comic=0;labelBackgroundColor=none;strokeWidth=1;fontFamily=Verdana;fontSize=12;align=center;" vertex="1" parent="1">
          <mxGeometry x="880" y="90" width="100" height="580" as="geometry" />
        </mxCell>
        <mxCell id="ht5kDJYPR5s3BAsfl9sB-11" value="" style="html=1;points=[];perimeter=orthogonalPerimeter;rounded=0;shadow=0;comic=0;labelBackgroundColor=none;strokeWidth=1;fontFamily=Verdana;fontSize=12;align=center;" vertex="1" parent="ht5kDJYPR5s3BAsfl9sB-10">
          <mxGeometry x="45" y="100" width="10" height="440" as="geometry" />
        </mxCell>
        <mxCell id="ht5kDJYPR5s3BAsfl9sB-13" value="sso" style="shape=umlLifeline;perimeter=lifelinePerimeter;whiteSpace=wrap;html=1;container=1;collapsible=0;recursiveResize=0;outlineConnect=0;rounded=1;shadow=0;comic=0;labelBackgroundColor=none;strokeWidth=1;fontFamily=Verdana;fontSize=12;align=center;" vertex="1" parent="1">
          <mxGeometry x="1040" y="90" width="100" height="580" as="geometry" />
        </mxCell>
        <mxCell id="ht5kDJYPR5s3BAsfl9sB-14" value="" style="html=1;points=[];perimeter=orthogonalPerimeter;rounded=0;shadow=0;comic=0;labelBackgroundColor=none;strokeWidth=1;fontFamily=Verdana;fontSize=12;align=center;" vertex="1" parent="ht5kDJYPR5s3BAsfl9sB-13">
          <mxGeometry x="50" y="100" width="10" height="440" as="geometry" />
        </mxCell>
        <mxCell id="ht5kDJYPR5s3BAsfl9sB-16" value="jwt" style="text;html=1;resizable=0;autosize=1;align=center;verticalAlign=middle;points=[];fillColor=none;strokeColor=none;rounded=0;" vertex="1" parent="ht5kDJYPR5s3BAsfl9sB-13">
          <mxGeometry x="-5" y="210" width="30" height="20" as="geometry" />
        </mxCell>
        <mxCell id="ht5kDJYPR5s3BAsfl9sB-31" value="" style="html=1;verticalAlign=bottom;endArrow=block;labelBackgroundColor=none;fontFamily=Verdana;fontSize=12;edgeStyle=elbowEdgeStyle;elbow=vertical;exitX=0.9;exitY=0.07;exitDx=0;exitDy=0;exitPerimeter=0;" edge="1" parent="ht5kDJYPR5s3BAsfl9sB-13">
          <mxGeometry x="-0.1538" y="10" relative="1" as="geometry">
            <mxPoint x="-236" y="130.79999999999995" as="sourcePoint" />
            <mxPoint x="50" y="131" as="targetPoint" />
            <Array as="points">
              <mxPoint x="70" y="131" />
              <mxPoint x="-158.79999999999995" y="130" />
              <mxPoint x="-98.79999999999995" y="140" />
              <mxPoint x="-168.79999999999995" y="110" />
              <mxPoint x="-198.79999999999995" y="130" />
            </Array>
            <mxPoint as="offset" />
          </mxGeometry>
        </mxCell>
        <mxCell id="ht5kDJYPR5s3BAsfl9sB-17" value="业务服务" style="shape=umlLifeline;perimeter=lifelinePerimeter;whiteSpace=wrap;html=1;container=1;collapsible=0;recursiveResize=0;outlineConnect=0;rounded=1;shadow=0;comic=0;labelBackgroundColor=none;strokeWidth=1;fontFamily=Verdana;fontSize=12;align=center;" vertex="1" parent="1">
          <mxGeometry x="1180" y="90" width="100" height="580" as="geometry" />
        </mxCell>
        <mxCell id="ht5kDJYPR5s3BAsfl9sB-18" value="" style="html=1;verticalAlign=bottom;endArrow=block;labelBackgroundColor=none;fontFamily=Verdana;fontSize=12;edgeStyle=elbowEdgeStyle;elbow=vertical;" edge="1" parent="ht5kDJYPR5s3BAsfl9sB-17" source="ht5kDJYPR5s3BAsfl9sB-20">
          <mxGeometry x="-0.1538" y="10" relative="1" as="geometry">
            <mxPoint x="-235" y="230.46000000000004" as="sourcePoint" />
            <mxPoint x="45" y="230" as="targetPoint" />
            <Array as="points">
              <mxPoint x="-164" y="229.5" />
              <mxPoint x="-104" y="239.5" />
              <mxPoint x="-174" y="209.5" />
              <mxPoint x="-204" y="229.5" />
            </Array>
            <mxPoint as="offset" />
          </mxGeometry>
        </mxCell>
        <mxCell id="ht5kDJYPR5s3BAsfl9sB-45" value="业务请求" style="edgeLabel;html=1;align=center;verticalAlign=middle;resizable=0;points=[];" vertex="1" connectable="0" parent="ht5kDJYPR5s3BAsfl9sB-18">
          <mxGeometry x="-0.6674" y="-1" relative="1" as="geometry">
            <mxPoint x="-2" y="-10" as="offset" />
          </mxGeometry>
        </mxCell>
        <mxCell id="ht5kDJYPR5s3BAsfl9sB-19" value="dispatch" style="html=1;verticalAlign=bottom;endArrow=block;labelBackgroundColor=none;fontFamily=Verdana;fontSize=12;elbow=vertical;edgeStyle=orthogonalEdgeStyle;curved=1;entryX=1;entryY=0.286;entryPerimeter=0;exitX=1.038;exitY=0.345;exitPerimeter=0;" edge="1" parent="ht5kDJYPR5s3BAsfl9sB-17">
          <mxGeometry x="-0.5796" y="10" relative="1" as="geometry">
            <mxPoint x="55.003333333333444" y="230" as="sourcePoint" />
            <mxPoint x="60.003333333333444" y="268.3333333333335" as="targetPoint" />
            <Array as="points">
              <mxPoint x="109.66999999999996" y="230" />
              <mxPoint x="109.66999999999996" y="268" />
            </Array>
            <mxPoint as="offset" />
          </mxGeometry>
        </mxCell>
        <mxCell id="ht5kDJYPR5s3BAsfl9sB-20" value="用户" style="shape=umlLifeline;perimeter=lifelinePerimeter;whiteSpace=wrap;html=1;container=1;collapsible=0;recursiveResize=0;outlineConnect=0;rounded=1;shadow=0;comic=0;labelBackgroundColor=none;strokeWidth=1;fontFamily=Verdana;fontSize=12;align=center;" vertex="1" parent="1">
          <mxGeometry x="740" y="90" width="100" height="580" as="geometry" />
        </mxCell>
        <mxCell id="ht5kDJYPR5s3BAsfl9sB-21" value="" style="html=1;points=[];perimeter=orthogonalPerimeter;rounded=0;shadow=0;comic=0;labelBackgroundColor=none;strokeWidth=1;fontFamily=Verdana;fontSize=12;align=center;" vertex="1" parent="ht5kDJYPR5s3BAsfl9sB-20">
          <mxGeometry x="45" y="100" width="10" height="440" as="geometry" />
        </mxCell>
        <mxCell id="ht5kDJYPR5s3BAsfl9sB-28" value="return" style="html=1;verticalAlign=bottom;endArrow=open;dashed=1;endSize=8;labelBackgroundColor=none;fontFamily=Verdana;fontSize=12;entryX=0.18;entryY=0.522;entryDx=0;entryDy=0;entryPerimeter=0;" edge="1" parent="ht5kDJYPR5s3BAsfl9sB-20">
          <mxGeometry x="-0.1879" relative="1" as="geometry">
            <mxPoint x="55.00000000000023" y="329.50000000000006" as="targetPoint" />
            <mxPoint x="493.20000000000005" y="329.82" as="sourcePoint" />
            <mxPoint as="offset" />
            <Array as="points">
              <mxPoint x="328.20000000000005" y="329.82" />
            </Array>
          </mxGeometry>
        </mxCell>
        <mxCell id="ht5kDJYPR5s3BAsfl9sB-22" value="" style="html=1;points=[];perimeter=orthogonalPerimeter;rounded=0;shadow=0;comic=0;labelBackgroundColor=none;strokeWidth=1;fontFamily=Verdana;fontSize=12;align=center;" vertex="1" parent="1">
          <mxGeometry x="1225" y="190" width="10" height="440" as="geometry" />
        </mxCell>
        <mxCell id="ht5kDJYPR5s3BAsfl9sB-24" value="Note" style="shape=note;whiteSpace=wrap;html=1;size=14;verticalAlign=top;align=left;spacingTop=-6;rounded=0;shadow=0;comic=0;labelBackgroundColor=none;strokeWidth=1;fontFamily=Verdana;fontSize=12" vertex="1" parent="1">
          <mxGeometry x="740" y="40" width="100" height="35" as="geometry" />
        </mxCell>
        <mxCell id="ht5kDJYPR5s3BAsfl9sB-25" value="网关配置路由" style="shape=note;whiteSpace=wrap;html=1;size=14;verticalAlign=top;align=left;spacingTop=-6;rounded=0;shadow=0;comic=0;labelBackgroundColor=none;strokeWidth=1;fontFamily=Verdana;fontSize=12" vertex="1" parent="1">
          <mxGeometry x="880" y="40" width="100" height="35" as="geometry" />
        </mxCell>
        <mxCell id="ht5kDJYPR5s3BAsfl9sB-26" value="提供认证和返回&lt;br&gt;用户信息jwt" style="shape=note;whiteSpace=wrap;html=1;size=14;verticalAlign=top;align=left;spacingTop=-6;rounded=0;shadow=0;comic=0;labelBackgroundColor=none;strokeWidth=1;fontFamily=Verdana;fontSize=12" vertex="1" parent="1">
          <mxGeometry x="1040" y="40" width="100" height="35" as="geometry" />
        </mxCell>
        <mxCell id="ht5kDJYPR5s3BAsfl9sB-27" value="无需再次访问&lt;br&gt;用户中心" style="shape=note;whiteSpace=wrap;html=1;size=14;verticalAlign=top;align=left;spacingTop=-6;rounded=0;shadow=0;comic=0;labelBackgroundColor=none;strokeWidth=1;fontFamily=Verdana;fontSize=12" vertex="1" parent="1">
          <mxGeometry x="1180" y="40" width="100" height="35" as="geometry" />
        </mxCell>
        <mxCell id="ht5kDJYPR5s3BAsfl9sB-12" value="return&amp;nbsp;jwt" style="html=1;verticalAlign=bottom;endArrow=open;dashed=1;endSize=8;labelBackgroundColor=none;fontFamily=Verdana;fontSize=12;edgeStyle=elbowEdgeStyle;elbow=vertical;" edge="1" parent="1">
          <mxGeometry x="0.4806" relative="1" as="geometry">
            <mxPoint x="800" y="250" as="targetPoint" />
            <Array as="points">
              <mxPoint x="830" y="250" />
              <mxPoint x="850" y="250" />
              <mxPoint x="820" y="250" />
              <mxPoint x="820" y="250" />
            </Array>
            <mxPoint x="1080" y="250" as="sourcePoint" />
            <mxPoint as="offset" />
          </mxGeometry>
        </mxCell>
        <mxCell id="ht5kDJYPR5s3BAsfl9sB-32" value="login" style="text;html=1;resizable=0;autosize=1;align=center;verticalAlign=middle;points=[];fillColor=none;strokeColor=none;rounded=0;" vertex="1" parent="1">
          <mxGeometry x="840" y="200" width="40" height="20" as="geometry" />
        </mxCell>
        <mxCell id="ht5kDJYPR5s3BAsfl9sB-3" value="return user&amp;nbsp;token" style="html=1;verticalAlign=bottom;endArrow=open;dashed=1;endSize=8;labelBackgroundColor=none;fontFamily=Verdana;fontSize=12;edgeStyle=elbowEdgeStyle;elbow=vertical;entryX=1.22;entryY=0.136;entryDx=0;entryDy=0;entryPerimeter=0;" edge="1" parent="1" source="7baba1c4bc27f4b0-13" target="7baba1c4bc27f4b0-9">
          <mxGeometry relative="1" as="geometry">
            <mxPoint x="160" y="240" as="targetPoint" />
            <Array as="points">
              <mxPoint x="380" y="240" />
              <mxPoint x="410" y="240" />
            </Array>
            <mxPoint x="435" y="240" as="sourcePoint" />
            <mxPoint as="offset" />
          </mxGeometry>
        </mxCell>
        <mxCell id="ht5kDJYPR5s3BAsfl9sB-37" value="" style="endArrow=classic;html=1;rounded=0;exitX=1.3;exitY=0.227;exitDx=0;exitDy=0;exitPerimeter=0;" edge="1" parent="1">
          <mxGeometry width="50" height="50" relative="1" as="geometry">
            <mxPoint x="157" y="279.8800000000001" as="sourcePoint" />
            <mxPoint x="288.5" y="279.8800000000001" as="targetPoint" />
          </mxGeometry>
        </mxCell>
        <mxCell id="ht5kDJYPR5s3BAsfl9sB-44" value="业务请求" style="edgeLabel;html=1;align=center;verticalAlign=middle;resizable=0;points=[];" vertex="1" connectable="0" parent="ht5kDJYPR5s3BAsfl9sB-37">
          <mxGeometry x="-0.1635" y="-3" relative="1" as="geometry">
            <mxPoint y="-13" as="offset" />
          </mxGeometry>
        </mxCell>
        <mxCell id="ht5kDJYPR5s3BAsfl9sB-41" value="" style="endArrow=classic;html=1;rounded=0;exitX=0.98;exitY=0.425;exitDx=0;exitDy=0;exitPerimeter=0;" edge="1" parent="1" source="7baba1c4bc27f4b0-10" target="7baba1c4bc27f4b0-16">
          <mxGeometry width="50" height="50" relative="1" as="geometry">
            <mxPoint x="740" y="350" as="sourcePoint" />
            <mxPoint x="790" y="300" as="targetPoint" />
          </mxGeometry>
        </mxCell>
        <mxCell id="ht5kDJYPR5s3BAsfl9sB-42" value="" style="endArrow=classic;html=1;rounded=0;dashed=1;" edge="1" parent="1">
          <mxGeometry width="50" height="50" relative="1" as="geometry">
            <mxPoint x="441" y="340" as="sourcePoint" />
            <mxPoint x="296" y="340" as="targetPoint" />
            <Array as="points">
              <mxPoint x="376" y="340" />
            </Array>
          </mxGeometry>
        </mxCell>
        <mxCell id="ht5kDJYPR5s3BAsfl9sB-43" value="验证通过" style="edgeLabel;html=1;align=center;verticalAlign=middle;resizable=0;points=[];" vertex="1" connectable="0" parent="ht5kDJYPR5s3BAsfl9sB-42">
          <mxGeometry x="0.1034" y="-3" relative="1" as="geometry">
            <mxPoint y="-7" as="offset" />
          </mxGeometry>
        </mxCell>
        <mxCell id="ht5kDJYPR5s3BAsfl9sB-46" value="" style="endArrow=classic;html=1;rounded=0;dashed=1;" edge="1" parent="1" target="ht5kDJYPR5s3BAsfl9sB-14">
          <mxGeometry width="50" height="50" relative="1" as="geometry">
            <mxPoint x="1220" y="360" as="sourcePoint" />
            <mxPoint x="790" y="300" as="targetPoint" />
            <Array as="points">
              <mxPoint x="1150" y="360" />
            </Array>
          </mxGeometry>
        </mxCell>
        <mxCell id="ht5kDJYPR5s3BAsfl9sB-47" value="shiro 配置拦截" style="edgeLabel;html=1;align=center;verticalAlign=middle;resizable=0;points=[];" vertex="1" connectable="0" parent="ht5kDJYPR5s3BAsfl9sB-46">
          <mxGeometry x="-0.072" y="1" relative="1" as="geometry">
            <mxPoint y="-11" as="offset" />
          </mxGeometry>
        </mxCell>
        <mxCell id="ht5kDJYPR5s3BAsfl9sB-52" value="" style="html=1;verticalAlign=bottom;endArrow=block;labelBackgroundColor=none;fontFamily=Verdana;fontSize=12;edgeStyle=elbowEdgeStyle;elbow=vertical;" edge="1" parent="1">
          <mxGeometry x="-0.1538" y="10" relative="1" as="geometry">
            <mxPoint x="1100" y="390" as="sourcePoint" />
            <mxPoint x="1220" y="390" as="targetPoint" />
            <Array as="points">
              <mxPoint x="1136" y="390" />
              <mxPoint x="1171" y="390" />
              <mxPoint x="1231" y="400" />
              <mxPoint x="1161" y="370" />
              <mxPoint x="1131" y="390" />
            </Array>
            <mxPoint as="offset" />
          </mxGeometry>
        </mxCell>
      </root>
    </mxGraphModel>
  </diagram>
</mxfile>
